Coordinates
version=1
nRows=13
nColumns=40
inDegrees=yes

Units are S.I. units (second, meters, Newtons, ...)
Angles are in degrees.

endheader
time	pelvis_tilt	pelvis_list	pelvis_rotation	pelvis_tx	pelvis_ty	pelvis_tz	hip_flexion_r	hip_adduction_r	hip_rotation_r	knee_angle_r	knee_angle_r_beta	ankle_angle_r	subtalar_angle_r	mtp_angle_r	hip_flexion_l	hip_adduction_l	hip_rotation_l	knee_angle_l	knee_angle_l_beta	ankle_angle_l	subtalar_angle_l	mtp_angle_l	lumbar_extension	lumbar_bending	lumbar_rotation	arm_flex_r	arm_add_r	arm_rot_r	elbow_flex_r	pro_sup_r	wrist_flex_r	wrist_dev_r	arm_flex_l	arm_add_l	arm_rot_l	elbow_flex_l	pro_sup_l	wrist_flex_l	wrist_dev_l
     27.05000000	     -5.90897549	     -5.41590695	     -7.96088371	      1.09225358	      0.92496394	      0.44678660	     25.21183676	      1.13369076	    -13.44259733	     12.22125914	     12.22125914	      3.04295892	      7.40609629	      3.35259909	      6.09567422	     -8.59913260	    -10.79013859	     19.01027918	     19.01027918	     17.99767401	    -13.25426320	      0.68906377	    -11.66166857	      4.37373014	      0.95909410	      4.21007830	    -14.41729266	    -11.00627714	     31.70057097	     46.97199817	      0.00000000	      0.00000000	      5.45603351	    -15.31174719	     -3.64648101	     47.18396278	     46.01830282	      0.00000000	      0.00000000
     27.06285714	     -5.89744109	     -5.42621757	     -8.00900746	      1.09465580	      0.92393217	      0.44937661	     24.63669715	      1.33758792	    -13.69787972	     12.77092195	     12.77092195	      2.86368003	      7.09190454	      3.23723389	      5.47004180	     -8.70199821	    -10.84508522	     18.94745232	     18.94745232	     18.35033049	    -13.31614981	      0.62851931	    -11.33071367	      4.52467023	      1.05439207	      4.28131961	    -14.04523928	    -10.92481369	     31.80202907	     46.95964198	      0.00000000	      0.00000000	      5.17223734	    -14.92129729	     -3.55747882	     47.08955377	     46.00748573	      0.00000000	      0.00000000
     27.07571429	     -5.61314693	     -5.34735326	     -8.06678086	      1.09729486	      0.92313638	      0.45206040	     24.12197854	      1.36762994	    -13.46343065	     14.03934355	     14.03934355	      2.81989855	      6.18694658	      2.36843193	      4.43261393	     -8.67933250	    -11.10404395	     18.69769363	     18.69769363	     18.74373393	    -12.98423024	      0.70014094	    -11.32221581	      4.57275804	      0.95633327	      4.49870912	    -13.82794892	    -10.75686203	     32.27217031	     46.92152633	      0.00000000	      0.00000000	      4.92574929	    -14.72238085	     -3.59383563	     46.82745638	     46.01163084	      0.00000000	      0.00000000
     27.08857143	     -5.44212702	     -5.29166668	     -8.07626266	      1.09991831	      0.92224364	      0.45486330	     23.66285434	      1.46329602	    -13.01193844	     15.11111155	     15.11111155	      2.63888580	      5.12413906	      1.22249130	      3.68025231	     -8.74728832	    -11.32640116	     18.73536541	     18.73536541	     19.16361632	    -12.72947660	      0.83791275	    -11.15153785	      4.63326910	      0.94948435	      4.54000851	    -13.54271940	    -10.46134639	     32.87084369	     46.86601320	      0.00000000	      0.00000000	      4.65288232	    -14.38017176	     -3.72021412	     46.52811486	     46.02472599	      0.00000000	      0.00000000
     27.10142857	     -5.29359775	     -5.32504581	     -8.04506510	      1.10261208	      0.92142518	      0.45785267	     22.94529450	      1.80273862	    -12.12431845	     15.42269289	     15.42269289	      1.04294327	      3.20085394	     -3.48553831	      3.13435918	     -9.01196376	    -11.65107068	     19.19788439	     19.19788439	     20.16309051	    -11.99693771	      2.08170709	    -10.93650934	      4.82247983	      1.20617879	      3.65466617	    -13.76819948	     -8.42777467	     35.34480965	     46.56185787	      0.00000000	      0.00000000	      4.66841696	    -13.57662066	     -4.97113504	     45.75124452	     46.17417339	      0.00000000	      0.00000000
     27.11428571	     -5.04731947	     -5.30819171	     -8.01403111	      1.10502462	      0.92097083	      0.46073162	     22.55724085	      1.86378618	    -11.72717736	     16.55512429	     16.55512429	      1.42198999	      2.60673865	     -3.83007135	      2.51843830	     -9.13945001	    -11.65919226	     19.58220738	     19.58220738	     20.33617392	    -12.12366504	      2.06239697	    -10.97324134	      4.88892068	      1.20772783	      3.95151253	    -13.55589572	     -8.21772453	     35.59186587	     46.53462415	      0.00000000	      0.00000000	      4.45423325	    -13.36795471	     -4.97240355	     45.55095821	     46.17269953	      0.00000000	      0.00000000
     27.12714286	     -4.82825834	     -5.35197850	     -7.98893214	      1.10747202	      0.92087046	      0.46369752	     22.03107810	      2.01816794	    -11.39440487	     17.25285510	     17.25285510	      1.85778573	      2.27934836	     -4.08173199	      1.99260660	     -9.36506164	    -11.64813259	     20.08413950	     20.08413950	     20.35643736	    -12.31624169	      2.05172377	    -10.92648229	      5.08634536	      1.36303442	      4.15406861	    -13.32109305	     -8.10661398	     35.75214634	     46.52051523	      0.00000000	      0.00000000	      4.10784706	    -12.98570350	     -4.92891470	     45.36956058	     46.16358342	      0.00000000	      0.00000000
     27.14000000	     -4.71522036	     -5.37331295	     -7.92536601	      1.10937765	      0.92059434	      0.46686592	     22.01342367	      2.27909364	    -10.24861710	     18.45359872	     18.45359872	      2.36256083	      0.23591602	     -4.03884760	      2.00011635	     -9.74957765	    -11.73597123	     21.33345018	     21.33345018	     20.69104049	    -12.18688703	      2.33477630	    -10.85823310	      5.21324556	      1.32145414	      4.15562198	    -13.57042765	     -6.36123464	     37.20640901	     46.31745312	      0.00000000	      0.00000000	      4.13660042	    -12.56575793	     -6.11470036	     44.55175601	     46.28845517	      0.00000000	      0.00000000
     27.15285714	     -4.57407939	     -5.38832202	     -7.80967507	      1.11121180	      0.92072157	      0.46990614	     21.78710695	      2.39555374	     -9.88589781	     19.27016021	     19.27016021	      2.98064885	     -0.35672034	     -4.20816733	      2.08186067	    -10.08879764	    -11.53838885	     22.65754314	     22.65754314	     20.53383296	    -12.59332849	      2.15046265	    -10.84473940	      5.35815883	      1.30086121	      4.53081683	    -13.48336879	     -6.10598207	     37.56264132	     46.28405515	      0.00000000	      0.00000000	      3.90490200	    -12.36530339	     -6.22546257	     44.29879931	     46.29617231	      0.00000000	      0.00000000
     27.16571429	     -4.39557194	     -5.46255699	     -7.70039668	      1.11291823	      0.92113827	      0.47316725	     21.47391709	      2.64847699	     -9.35014962	     19.94254720	     19.94254720	      3.73549463	     -1.26177592	     -3.79286174	      2.28311935	    -10.56446640	    -11.36304330	     24.26976947	     24.26976947	     20.16831574	    -12.99177596	      1.64015796	    -10.88049853	      5.48263569	      1.26940935	      4.82090938	    -13.56933497	     -5.27795485	     38.35476791	     46.18750432	      0.00000000	      0.00000000	      3.78561458	    -12.08625678	     -6.78110373	     43.86920502	     46.35113991	      0.00000000	      0.00000000
     27.17857143	     -4.26376495	     -5.48574166	     -7.52763466	      1.11432752	      0.92168064	      0.47629062	     21.12623866	      2.76356037	     -9.26030034	     20.38865026	     20.38865026	      4.32635454	     -1.52404416	     -3.87891955	      2.82052044	    -11.02556030	    -11.00448283	     26.29233029	     26.29233029	     19.67859735	    -13.55277223	      1.24862952	    -10.93576287	      5.60974405	      1.31065600	      5.23785063	    -13.54096114	     -5.10961061	     38.71384459	     46.16237158	      0.00000000	      0.00000000	      3.62445044	    -11.94359194	     -6.86218493	     43.66469992	     46.35632111	      0.00000000	      0.00000000
     27.19142857	     -4.20708544	     -5.48376508	     -7.32734906	      1.11550735	      0.92215579	      0.47948325	     20.87627032	      2.89992270	     -9.05489236	     20.83171932	     20.83171932	      5.05248355	     -2.04024797	     -3.46852986	      3.65816291	    -11.53353403	    -10.61382165	     28.61690507	     28.61690507	     18.77403744	    -14.21631926	      0.13598776	    -10.89922127	      5.67783770	      1.17907186	      5.55748151	    -13.60371820	     -4.50914549	     39.65999519	     46.08063938	      0.00000000	      0.00000000	      3.46585260	    -11.82591725	     -7.21720096	     43.27313011	     46.38970947	      0.00000000	      0.00000000
     27.20428571	     -4.06257310	     -5.53932793	     -7.07411382	      1.11657789	      0.92289894	      0.48260144	     20.34946104	      3.03754913	     -9.21050026	     20.95437606	     20.95437606	      5.56476210	     -2.07404820	     -3.50342293	      4.60166471	    -12.11099827	    -10.07949457	     31.25117906	     31.25117906	     17.86207279	    -14.86590604	     -0.38067144	    -11.00304854	      5.81800893	      1.20956547	      5.96107747	    -13.68909708	     -4.39381632	     40.05190760	     46.05864203	      0.00000000	      0.00000000	      3.40569291	    -11.72796041	     -7.25555190	     43.14772431	     46.39220287	      0.00000000	      0.00000000
